<?xml version="1.0" encoding="UTF-8"?>
<svg id="Capa_1" xmlns="http://www.w3.org/2000/svg" version="1.1" viewBox="0 0 64 64">
  <!-- Generator: Adobe Illustrator 29.8.1, SVG Export Plug-In . SVG Version: 2.1.1 Build 2)  -->
  <defs>
    <style>
      .st0 {
        fill: #e6e6e6;
      }
    </style>
  </defs>
  <rect class="st0" x=".21" y=".21" width="63.58" height="63.58" rx="31.79" ry="31.79"/>
  <g>
    <path d="M12.69,35.1c.8,0,1.46-.26,1.98-.77.52-.52.78-1.26.78-2.22v-.21c0-.96-.26-1.7-.77-2.22-.52-.52-1.18-.77-1.99-.77s-1.46.26-1.98.77c-.52.52-.78,1.26-.78,2.22v.21c0,.96.26,1.7.78,2.22.52.52,1.18.77,1.98.77Z"/>
    <path d="M31.64,35.1c.8,0,1.46-.26,1.98-.77.52-.52.78-1.26.78-2.22v-.21c0-.96-.26-1.7-.77-2.22-.52-.52-1.18-.77-1.99-.77s-1.46.26-1.98.77c-.52.52-.78,1.26-.78,2.22v.21c0,.96.26,1.7.78,2.22.52.52,1.18.77,1.98.77Z"/>
    <path d="M57.97,27.71c-.68-1.14-1.58-1.98-2.75-2.58-1.16-.59-2.48-.89-3.94-.89s-2.78.3-3.94.89c-.51.26-.98.57-1.38.92-1.29,1.12-2.89,1.68-4.5,1.68s-3.21-.56-4.5-1.68c-.41-.35-.87-.66-1.38-.92-1.16-.59-2.48-.89-3.94-.89s-2.78.3-3.94.89c-.44.22-.85.49-1.21.78-1.26,1.01-2.79,1.52-4.31,1.52s-3.05-.51-4.31-1.52c-.36-.29-.77-.55-1.21-.78-1.16-.59-2.48-.89-3.94-.89s-2.78.3-3.94.89c-1.18.6-2.08,1.44-2.75,2.58-.68,1.14-1.01,2.46-1.01,4.06v.47c0,1.59.33,2.92,1.01,4.05.68,1.14,1.58,1.98,2.75,2.58,1.16.59,2.48.89,3.94.89s2.78-.3,3.94-.89c.44-.22.84-.48,1.21-.78,1.26-1.01,2.78-1.52,4.31-1.52s3.05.51,4.31,1.52c.36.29.77.55,1.21.78,1.16.59,2.48.89,3.94.89s2.78-.3,3.94-.89c.51-.26.98-.57,1.38-.92,1.29-1.12,2.9-1.68,4.5-1.68s3.21.56,4.5,1.68c.41.35.87.66,1.38.92,1.16.59,2.48.89,3.94.89s2.78-.3,3.94-.89c1.17-.6,2.08-1.44,2.75-2.57.68-1.14,1.01-2.46,1.01-4.06v-.47c0-1.59-.33-2.92-1.01-4.06ZM16.69,32.15c0,1.38-.38,2.44-1.12,3.18-.75.74-1.7,1.11-2.84,1.11s-2.09-.37-2.84-1.11c-.75-.74-1.12-1.8-1.12-3.18v-.3c0-1.38.37-2.44,1.12-3.18.75-.74,1.7-1.11,2.84-1.11s2.12.37,2.86,1.11c.74.74,1.11,1.8,1.11,3.18v.3ZM35.61,32.15c0,1.38-.38,2.44-1.12,3.18-.75.74-1.7,1.11-2.84,1.11s-2.09-.37-2.84-1.11c-.75-.74-1.12-1.8-1.12-3.18v-.3c0-1.38.37-2.44,1.12-3.18.75-.74,1.7-1.11,2.84-1.11s2.12.37,2.86,1.11c.74.74,1.11,1.8,1.11,3.18v.3ZM55.24,32.15c0,1.38-.38,2.44-1.12,3.18-.75.74-1.7,1.11-2.84,1.11s-2.09-.37-2.84-1.11c-.75-.74-1.12-1.8-1.12-3.18v-.3c0-1.38.37-2.44,1.12-3.18.75-.74,1.7-1.11,2.84-1.11s2.12.37,2.86,1.11c.74.74,1.11,1.8,1.11,3.18v.3Z"/>
    <path d="M51.28,35.1c.8,0,1.46-.26,1.98-.77.52-.52.78-1.26.78-2.22v-.21c0-.96-.26-1.7-.77-2.22-.52-.52-1.18-.77-1.99-.77s-1.46.26-1.98.77c-.52.52-.78,1.26-.78,2.22v.21c0,.96.26,1.7.78,2.22.52.52,1.18.77,1.98.77Z"/>
  </g>
</svg>