<?xml version="1.0" encoding="UTF-8"?>
<svg id="Isotipo_Gris" data-name="Isotipo Gris" xmlns="http://www.w3.org/2000/svg" viewBox="0 0 500 500">
  <defs>
    <style>
      .cls-1 {
        fill: #232323;
      }

      .cls-2 {
        fill: #e6e6e6;
      }
    </style>
  </defs>
  <rect class="cls-2" x="110.93" y="110.93" width="278.15" height="278.15"/>
  <g>
    <path class="cls-1" d="M165.54,263.55c3.49,0,6.38-1.13,8.67-3.39,2.29-2.26,3.43-5.49,3.43-9.71v-.9c0-4.21-1.13-7.45-3.39-9.71-2.26-2.26-5.16-3.39-8.72-3.39s-6.38,1.13-8.67,3.39c-2.29,2.26-3.43,5.5-3.43,9.71v.9c0,4.22,1.14,7.45,3.43,9.71,2.29,2.26,5.18,3.39,8.67,3.39Z"/>
    <path class="cls-1" d="M248.42,263.55c3.49,0,6.38-1.13,8.67-3.39,2.29-2.26,3.43-5.49,3.43-9.71v-.9c0-4.21-1.13-7.45-3.39-9.71-2.26-2.26-5.16-3.39-8.72-3.39s-6.38,1.13-8.67,3.39c-2.29,2.26-3.43,5.5-3.43,9.71v.9c0,4.22,1.14,7.45,3.43,9.71,2.29,2.26,5.18,3.39,8.67,3.39Z"/>
    <path class="cls-1" d="M363.59,231.22c-2.96-4.97-6.91-8.65-12.05-11.27-5.07-2.58-10.86-3.88-17.22-3.88s-12.16,1.31-17.22,3.88c-2.23,1.13-4.27,2.49-6.05,4.04-5.65,4.89-12.66,7.34-19.68,7.34s-14.04-2.45-19.68-7.34c-1.78-1.55-3.82-2.9-6.04-4.04-5.07-2.58-10.87-3.88-17.22-3.88s-12.16,1.31-17.22,3.88c-1.92.98-3.7,2.12-5.29,3.4-5.51,4.44-12.18,6.66-18.86,6.66s-13.36-2.22-18.86-6.65c-1.59-1.28-3.37-2.43-5.29-3.4-5.07-2.58-10.86-3.88-17.22-3.88s-12.16,1.31-17.22,3.88c-5.14,2.62-9.08,6.3-12.05,11.27-2.96,4.97-4.4,10.77-4.4,17.74v2.07c0,6.97,1.44,12.77,4.4,17.74,2.96,4.97,6.9,8.65,12.05,11.27,5.07,2.58,10.86,3.89,17.22,3.89s12.15-1.31,17.23-3.89c1.92-.97,3.69-2.12,5.28-3.4,5.5-4.44,12.18-6.65,18.86-6.65s13.36,2.22,18.87,6.66c1.58,1.28,3.36,2.42,5.28,3.4,5.07,2.58,10.86,3.89,17.22,3.89s12.15-1.31,17.22-3.89c2.23-1.14,4.27-2.49,6.04-4.03,5.65-4.9,12.67-7.34,19.69-7.34s14.04,2.45,19.69,7.34c1.77,1.54,3.81,2.89,6.05,4.03,5.07,2.58,10.86,3.89,17.22,3.89s12.15-1.31,17.23-3.89c5.14-2.61,9.08-6.3,12.04-11.26,2.96-4.97,4.4-10.77,4.4-17.74v-2.07c0-6.97-1.44-12.78-4.4-17.74ZM183.03,250.65c0,6.04-1.64,10.68-4.92,13.92-3.28,3.24-7.43,4.86-12.43,4.86s-9.15-1.62-12.43-4.86c-3.28-3.24-4.92-7.88-4.92-13.92v-1.29c0-6.04,1.64-10.68,4.92-13.92,3.28-3.24,7.42-4.86,12.43-4.86s9.26,1.62,12.5,4.86c3.24,3.24,4.86,7.88,4.86,13.92v1.29ZM265.77,250.65c0,6.04-1.64,10.68-4.92,13.92-3.28,3.24-7.43,4.86-12.43,4.86s-9.15-1.62-12.43-4.86c-3.28-3.24-4.92-7.88-4.92-13.92v-1.29c0-6.04,1.64-10.68,4.92-13.92,3.28-3.24,7.42-4.86,12.43-4.86s9.26,1.62,12.5,4.86c3.24,3.24,4.86,7.88,4.86,13.92v1.29ZM351.68,250.65c0,6.04-1.64,10.68-4.92,13.92-3.28,3.24-7.43,4.86-12.43,4.86s-9.15-1.62-12.43-4.86c-3.28-3.24-4.92-7.88-4.92-13.92v-1.29c0-6.04,1.64-10.68,4.92-13.92,3.28-3.24,7.42-4.86,12.43-4.86s9.26,1.62,12.5,4.86c3.24,3.24,4.86,7.88,4.86,13.92v1.29Z"/>
    <path class="cls-1" d="M334.33,263.55c3.49,0,6.38-1.13,8.67-3.39,2.29-2.26,3.43-5.49,3.43-9.71v-.9c0-4.21-1.13-7.45-3.39-9.71-2.26-2.26-5.16-3.39-8.72-3.39s-6.38,1.13-8.67,3.39c-2.29,2.26-3.43,5.5-3.43,9.71v.9c0,4.22,1.14,7.45,3.43,9.71,2.29,2.26,5.18,3.39,8.67,3.39Z"/>
  </g>
</svg>