<svg xmlns="http://www.w3.org/2000/svg" id="Blanco_Bajada" data-name="Blanco Bajada" viewBox="39.8 205.35 420.4 89.3">
  <defs>
    <style>
      .cls-1 {
        fill: #fff;
      }
    </style>
  </defs>
  <g>
    <path class="cls-1" d="M39.8,290.39v-14.91h9.37v2.56h-6.56v3.6h6.05v2.56h-6.05v6.2h-2.81Z"/>
    <path class="cls-1" d="M54.37,290.68c-.75,0-1.43-.13-2.02-.39-.6-.26-1.07-.65-1.42-1.15-.35-.5-.52-1.12-.52-1.84s.17-1.33.52-1.82c.35-.49.83-.86,1.45-1.11.62-.25,1.32-.37,2.12-.37h2.9v-.6c0-.5-.16-.91-.47-1.22-.31-.32-.81-.48-1.49-.48s-1.16.15-1.49.46c-.33.31-.54.7-.64,1.18l-2.47-.83c.17-.54.44-1.03.82-1.48s.88-.81,1.51-1.09,1.4-.42,2.31-.42c1.39,0,2.49.35,3.3,1.04s1.21,1.7,1.21,3.02v3.94c0,.43.2.64.6.64h.85v2.22h-1.79c-.53,0-.96-.13-1.3-.38-.34-.26-.51-.6-.51-1.02v-.02h-.4c-.06.17-.18.39-.38.67-.2.28-.51.52-.94.73-.43.21-1.01.32-1.75.32ZM54.84,288.51c.75,0,1.37-.21,1.84-.63s.71-.98.71-1.67v-.21h-2.71c-.5,0-.89.11-1.17.32s-.43.51-.43.89.15.7.45.94c.3.24.73.36,1.3.36Z"/>
    <path class="cls-1" d="M67.71,290.68c-1.38,0-2.51-.3-3.39-.89s-1.41-1.45-1.6-2.56l2.47-.64c.1.5.27.89.5,1.17.23.28.52.49.87.61.35.12.73.18,1.14.18.62,0,1.09-.11,1.38-.33.3-.22.45-.49.45-.82s-.14-.58-.43-.76c-.28-.18-.74-.32-1.36-.44l-.6-.11c-.74-.14-1.41-.34-2.02-.59-.61-.25-1.1-.59-1.47-1.03-.37-.44-.55-1.01-.55-1.7,0-1.05.38-1.86,1.15-2.42.77-.56,1.78-.84,3.03-.84,1.18,0,2.16.26,2.94.79.78.53,1.29,1.21,1.53,2.07l-2.49.77c-.11-.54-.34-.92-.69-1.15-.35-.23-.78-.34-1.29-.34s-.9.09-1.17.27c-.27.18-.4.42-.4.73,0,.34.14.59.43.76s.67.29,1.15.37l.6.11c.8.14,1.52.33,2.16.57.65.23,1.16.57,1.53,1,.38.43.56,1.02.56,1.76,0,1.11-.4,1.96-1.2,2.57-.8.6-1.88.91-3.23.91Z"/>
    <path class="cls-1" d="M78.32,290.39c-.7,0-1.26-.22-1.69-.65-.43-.43-.65-1.01-.65-1.74v-5.96h-2.64v-2.22h2.64v-3.28h2.68v3.28h2.9v2.22h-2.9v5.5c0,.43.2.64.6.64h2.04v2.22h-2.98Z"/>
    <path class="cls-1" d="M88.03,290.39l3.92-14.91h4.9l3.92,14.91h-2.9l-.81-3.28h-5.33l-.81,3.28h-2.9ZM92.4,284.51h4l-1.81-7.26h-.38l-1.81,7.26Z"/>
    <path class="cls-1" d="M106.9,290.68c-.84,0-1.62-.21-2.35-.63-.73-.42-1.32-1.03-1.76-1.84s-.66-1.79-.66-2.94v-.34c0-1.15.22-2.13.66-2.94s1.02-1.42,1.75-1.84,1.51-.63,2.36-.63c.64,0,1.17.07,1.61.22.43.15.78.34,1.05.56.27.23.48.47.62.72h.38v-5.56h2.68v14.91h-2.64v-1.28h-.38c-.24.4-.61.76-1.12,1.09-.5.33-1.24.49-2.2.49ZM107.71,288.34c.82,0,1.51-.27,2.07-.8.55-.53.83-1.31.83-2.33v-.21c0-1.02-.27-1.8-.82-2.33-.55-.53-1.24-.8-2.08-.8s-1.51.27-2.07.8-.83,1.31-.83,2.33v.21c0,1.02.28,1.8.83,2.33.55.53,1.24.8,2.07.8Z"/>
    <path class="cls-1" d="M119.51,290.68c-.75,0-1.43-.13-2.02-.39-.6-.26-1.07-.65-1.42-1.15-.35-.5-.52-1.12-.52-1.84s.17-1.33.52-1.82c.35-.49.83-.86,1.45-1.11.62-.25,1.32-.37,2.12-.37h2.9v-.6c0-.5-.16-.91-.47-1.22-.31-.32-.81-.48-1.49-.48s-1.16.15-1.49.46c-.33.31-.54.7-.64,1.18l-2.47-.83c.17-.54.44-1.03.82-1.48s.88-.81,1.51-1.09,1.4-.42,2.31-.42c1.39,0,2.49.35,3.3,1.04s1.21,1.7,1.21,3.02v3.94c0,.43.2.64.6.64h.85v2.22h-1.79c-.53,0-.96-.13-1.3-.38-.34-.26-.51-.6-.51-1.02v-.02h-.4c-.06.17-.18.39-.38.67-.2.28-.51.52-.94.73-.43.21-1.01.32-1.75.32ZM119.98,288.51c.75,0,1.37-.21,1.84-.63s.71-.98.71-1.67v-.21h-2.71c-.5,0-.89.11-1.17.32s-.43.51-.43.89.15.7.45.94c.3.24.73.36,1.3.36Z"/>
    <path class="cls-1" d="M128.55,294.65v-14.83h2.64v1.28h.38c.24-.41.62-.78,1.13-1.1.51-.32,1.24-.48,2.19-.48.85,0,1.64.21,2.36.63.72.42,1.31,1.03,1.75,1.84.44.81.66,1.79.66,2.94v.34c0,1.15-.22,2.13-.66,2.94-.44.81-1.02,1.42-1.75,1.84-.72.42-1.51.63-2.36.63-.64,0-1.18-.07-1.61-.22s-.78-.34-1.04-.57c-.26-.23-.47-.47-.63-.71h-.38v5.47h-2.68ZM134.08,288.34c.84,0,1.53-.27,2.08-.8.55-.53.82-1.31.82-2.33v-.21c0-1.02-.28-1.8-.83-2.33-.55-.53-1.24-.8-2.07-.8s-1.51.27-2.07.8-.83,1.31-.83,2.33v.21c0,1.02.28,1.8.83,2.33.55.53,1.24.8,2.07.8Z"/>
    <path class="cls-1" d="M145.84,290.39c-.7,0-1.26-.22-1.69-.65-.43-.43-.65-1.01-.65-1.74v-5.96h-2.64v-2.22h2.64v-3.28h2.68v3.28h2.9v2.22h-2.9v5.5c0,.43.2.64.6.64h2.04v2.22h-2.98Z"/>
    <path class="cls-1" d="M152.85,278.59c-.48,0-.89-.16-1.23-.47s-.5-.72-.5-1.24.17-.92.5-1.24c.33-.31.74-.47,1.23-.47s.91.16,1.24.47c.33.31.49.72.49,1.24s-.16.92-.49,1.24-.74.47-1.24.47ZM151.51,290.39v-10.57h2.68v10.57h-2.68Z"/>
    <path class="cls-1" d="M159.39,290.39l-3.37-10.57h2.85l2.45,8.61h.38l2.45-8.61h2.85l-3.37,10.57h-4.26Z"/>
    <path class="cls-1" d="M173.37,290.68c-1.05,0-1.98-.22-2.78-.67-.8-.45-1.43-1.08-1.87-1.9s-.67-1.78-.67-2.89v-.26c0-1.11.22-2.07.66-2.89s1.06-1.45,1.85-1.9c.8-.45,1.72-.67,2.77-.67s1.94.23,2.71.69c.77.46,1.36,1.1,1.79,1.92.43.82.64,1.77.64,2.84v.92h-7.69c.03.72.3,1.31.81,1.77s1.14.68,1.87.68,1.31-.16,1.66-.49c.35-.33.62-.69.81-1.09l2.19,1.15c-.2.37-.49.77-.86,1.2-.38.43-.88.8-1.5,1.11-.63.31-1.42.46-2.39.46ZM170.79,283.89h4.94c-.06-.61-.3-1.1-.73-1.47-.43-.37-1-.55-1.69-.55s-1.3.18-1.73.55c-.43.37-.69.86-.79,1.47Z"/>
    <path class="cls-1" d="M186.17,290.39v-14.91h6.14c.94,0,1.76.19,2.48.56.72.38,1.28.91,1.68,1.59.4.68.61,1.49.61,2.43v.3c0,.92-.21,1.73-.63,2.42s-.99,1.22-1.7,1.6c-.72.38-1.53.56-2.44.56h-3.32v5.45h-2.81ZM188.98,282.38h3.05c.67,0,1.21-.18,1.62-.55.41-.37.62-.87.62-1.51v-.21c0-.64-.21-1.14-.62-1.51-.41-.37-.95-.55-1.62-.55h-3.05v4.35Z"/>
    <path class="cls-1" d="M202.19,290.68c-.75,0-1.43-.13-2.02-.39-.6-.26-1.07-.65-1.42-1.15-.35-.5-.52-1.12-.52-1.84s.17-1.33.52-1.82c.35-.49.83-.86,1.45-1.11.62-.25,1.32-.37,2.12-.37h2.9v-.6c0-.5-.16-.91-.47-1.22-.31-.32-.81-.48-1.49-.48s-1.16.15-1.49.46c-.33.31-.54.7-.64,1.18l-2.47-.83c.17-.54.44-1.03.82-1.48s.88-.81,1.51-1.09,1.4-.42,2.31-.42c1.39,0,2.49.35,3.3,1.04s1.21,1.7,1.21,3.02v3.94c0,.43.2.64.6.64h.85v2.22h-1.79c-.53,0-.96-.13-1.3-.38-.34-.26-.51-.6-.51-1.02v-.02h-.4c-.06.17-.18.39-.38.67-.2.28-.51.52-.94.73-.43.21-1.01.32-1.75.32ZM202.66,288.51c.75,0,1.37-.21,1.84-.63s.71-.98.71-1.67v-.21h-2.71c-.5,0-.89.11-1.17.32s-.43.51-.43.89.15.7.45.94c.3.24.73.36,1.3.36Z"/>
    <path class="cls-1" d="M211.22,290.39v-10.57h2.64v1.19h.38c.16-.43.42-.74.78-.94.36-.2.78-.3,1.27-.3h1.28v2.39h-1.32c-.68,0-1.24.18-1.68.54-.44.36-.66.92-.66,1.67v6.01h-2.68Z"/>
    <path class="cls-1" d="M222.68,290.68c-.75,0-1.43-.13-2.02-.39-.6-.26-1.07-.65-1.42-1.15-.35-.5-.52-1.12-.52-1.84s.17-1.33.52-1.82c.35-.49.83-.86,1.45-1.11.62-.25,1.32-.37,2.12-.37h2.9v-.6c0-.5-.16-.91-.47-1.22-.31-.32-.81-.48-1.49-.48s-1.16.15-1.49.46c-.33.31-.54.7-.64,1.18l-2.47-.83c.17-.54.44-1.03.82-1.48s.88-.81,1.51-1.09,1.4-.42,2.31-.42c1.39,0,2.49.35,3.3,1.04s1.21,1.7,1.21,3.02v3.94c0,.43.2.64.6.64h.85v2.22h-1.79c-.53,0-.96-.13-1.3-.38-.34-.26-.51-.6-.51-1.02v-.02h-.4c-.06.17-.18.39-.38.67-.2.28-.51.52-.94.73-.43.21-1.01.32-1.75.32ZM223.15,288.51c.75,0,1.37-.21,1.84-.63s.71-.98.71-1.67v-.21h-2.71c-.5,0-.89.11-1.17.32s-.43.51-.43.89.15.7.45.94c.3.24.73.36,1.3.36Z"/>
    <path class="cls-1" d="M231.71,290.39v-14.91h2.68v14.91h-2.68Z"/>
    <path class="cls-1" d="M237.38,290.39v-14.91h2.68v14.91h-2.68Z"/>
    <path class="cls-1" d="M247.86,290.68c-1.05,0-1.98-.22-2.78-.67-.8-.45-1.43-1.08-1.87-1.9s-.67-1.78-.67-2.89v-.26c0-1.11.22-2.07.66-2.89s1.06-1.45,1.85-1.9c.8-.45,1.72-.67,2.77-.67s1.94.23,2.7.69c.77.46,1.36,1.1,1.79,1.92.43.82.64,1.77.64,2.84v.92h-7.69c.03.72.3,1.31.81,1.77s1.14.68,1.87.68,1.31-.16,1.66-.49c.36-.33.63-.69.81-1.09l2.19,1.15c-.2.37-.49.77-.86,1.2-.37.43-.88.8-1.5,1.11s-1.42.46-2.39.46ZM245.28,283.89h4.94c-.06-.61-.3-1.1-.73-1.47-.43-.37-1-.55-1.69-.55s-1.3.18-1.73.55c-.43.37-.69.86-.79,1.47Z"/>
    <path class="cls-1" d="M255.34,290.39v-14.91h2.68v14.91h-2.68Z"/>
    <path class="cls-1" d="M269.14,290.39v-12.36h-4.35v-2.56h11.5v2.56h-4.35v12.36h-2.81Z"/>
    <path class="cls-1" d="M281.11,290.68c-1.05,0-1.98-.22-2.78-.67s-1.43-1.08-1.87-1.9c-.45-.82-.67-1.78-.67-2.89v-.26c0-1.11.22-2.07.66-2.89.44-.82,1.06-1.45,1.85-1.9.8-.45,1.72-.67,2.77-.67s1.94.23,2.71.69c.77.46,1.36,1.1,1.79,1.92.43.82.64,1.77.64,2.84v.92h-7.69c.03.72.3,1.31.81,1.77s1.14.68,1.87.68,1.31-.16,1.66-.49c.36-.33.63-.69.81-1.09l2.19,1.15c-.2.37-.49.77-.86,1.2-.38.43-.88.8-1.5,1.11-.63.31-1.42.46-2.39.46ZM278.53,283.89h4.94c-.06-.61-.3-1.1-.73-1.47-.43-.37-1-.55-1.69-.55s-1.3.18-1.72.55c-.43.37-.69.86-.79,1.47Z"/>
    <path class="cls-1" d="M288.59,290.39v-10.57h2.64v1.15h.38c.18-.36.49-.66.92-.93s.99-.39,1.68-.39c.75,0,1.36.15,1.81.44.45.29.8.67,1.04,1.14h.38c.24-.45.58-.83,1.02-1.13s1.07-.45,1.88-.45c.65,0,1.25.14,1.78.42.53.28.96.7,1.28,1.26.32.56.48,1.27.48,2.12v6.95h-2.68v-6.75c0-.58-.15-1.02-.45-1.31s-.72-.44-1.26-.44c-.61,0-1.08.2-1.42.59-.33.39-.5.95-.5,1.67v6.24h-2.68v-6.75c0-.58-.15-1.02-.45-1.31s-.72-.44-1.26-.44c-.61,0-1.08.2-1.42.59s-.5.95-.5,1.67v6.24h-2.68Z"/>
    <path class="cls-1" d="M306.78,294.65v-14.83h2.64v1.28h.38c.24-.41.62-.78,1.13-1.1.51-.32,1.24-.48,2.19-.48.85,0,1.64.21,2.36.63s1.31,1.03,1.75,1.84c.44.81.66,1.79.66,2.94v.34c0,1.15-.22,2.13-.66,2.94-.44.81-1.02,1.42-1.75,1.84-.72.42-1.51.63-2.36.63-.64,0-1.17-.07-1.61-.22-.43-.15-.78-.34-1.04-.57s-.47-.47-.63-.71h-.38v5.47h-2.68ZM312.32,288.34c.84,0,1.53-.27,2.08-.8.55-.53.82-1.31.82-2.33v-.21c0-1.02-.28-1.8-.83-2.33-.55-.53-1.24-.8-2.07-.8s-1.51.27-2.07.8c-.55.53-.83,1.31-.83,2.33v.21c0,1.02.28,1.8.83,2.33.55.53,1.24.8,2.07.8Z"/>
    <path class="cls-1" d="M325.19,290.68c-1.05,0-1.98-.22-2.78-.67s-1.43-1.08-1.87-1.9c-.45-.82-.67-1.78-.67-2.89v-.26c0-1.11.22-2.07.66-2.89.44-.82,1.06-1.45,1.85-1.9.8-.45,1.72-.67,2.77-.67s1.94.23,2.71.69c.77.46,1.36,1.1,1.79,1.92.43.82.64,1.77.64,2.84v.92h-7.69c.03.72.3,1.31.81,1.77s1.14.68,1.87.68,1.31-.16,1.66-.49c.36-.33.63-.69.81-1.09l2.19,1.15c-.2.37-.49.77-.86,1.2-.38.43-.88.8-1.5,1.11-.63.31-1.42.46-2.39.46ZM322.61,283.89h4.94c-.06-.61-.3-1.1-.73-1.47-.43-.37-1-.55-1.69-.55s-1.3.18-1.72.55c-.43.37-.69.86-.79,1.47Z"/>
    <path class="cls-1" d="M332.66,290.39v-10.57h2.64v1.19h.38c.16-.43.42-.74.78-.94.36-.2.78-.3,1.27-.3h1.28v2.39h-1.32c-.68,0-1.24.18-1.68.54-.44.36-.66.92-.66,1.67v6.01h-2.68Z"/>
    <path class="cls-1" d="M342.44,278.59c-.48,0-.89-.16-1.22-.47s-.5-.72-.5-1.24.17-.92.5-1.24c.33-.31.74-.47,1.22-.47s.91.16,1.24.47c.33.31.49.72.49,1.24s-.16.92-.49,1.24c-.33.31-.74.47-1.24.47ZM341.1,290.39v-10.57h2.68v10.57h-2.68Z"/>
    <path class="cls-1" d="M346.76,290.39v-10.57h2.64v1.38h.38c.17-.37.49-.72.96-1.05.47-.33,1.18-.5,2.13-.5.82,0,1.54.19,2.16.56.62.38,1.1.89,1.44,1.56.34.66.51,1.43.51,2.31v6.31h-2.68v-6.09c0-.8-.2-1.39-.59-1.79-.39-.4-.95-.6-1.67-.6-.82,0-1.46.27-1.92.82-.45.55-.68,1.31-.68,2.29v5.37h-2.68Z"/>
    <path class="cls-1" d="M359.38,285.15v-.34c0-1.11.22-2.06.66-2.84.44-.79,1.03-1.39,1.76-1.81.73-.42,1.53-.63,2.4-.63.97,0,1.7.17,2.19.51.5.34.86.7,1.09,1.06h.38v-1.28h2.64v12.44c0,.73-.21,1.3-.64,1.74-.43.43-.99.65-1.7.65h-7.07v-2.34h6.14c.4,0,.6-.21.6-.64v-2.75h-.38c-.14.23-.34.46-.6.69-.26.23-.6.43-1.02.59s-.97.23-1.62.23c-.87,0-1.67-.21-2.4-.63-.73-.42-1.32-1.02-1.76-1.81-.44-.79-.66-1.74-.66-2.84ZM364.96,288.09c.82,0,1.51-.26,2.07-.79.55-.52.83-1.26.83-2.22v-.21c0-.97-.27-1.71-.82-2.23-.55-.52-1.24-.78-2.08-.78s-1.51.26-2.07.78c-.55.52-.83,1.26-.83,2.23v.21c0,.95.28,1.69.83,2.22.55.53,1.24.79,2.07.79Z"/>
    <path class="cls-1" d="M383.98,290.68c-1.15,0-2.17-.21-3.05-.62-.88-.41-1.57-1-2.07-1.77-.5-.77-.75-1.69-.75-2.77v-.6h2.77v.6c0,.89.28,1.57.83,2.01.55.45,1.31.67,2.26.67s1.69-.19,2.16-.58c.48-.38.71-.87.71-1.47,0-.41-.12-.74-.35-1s-.57-.47-1.02-.63c-.45-.16-.99-.32-1.63-.46l-.49-.11c-1.02-.23-1.9-.51-2.63-.86-.73-.35-1.29-.81-1.68-1.37-.39-.57-.59-1.31-.59-2.22s.22-1.69.65-2.33c.43-.65,1.04-1.14,1.83-1.49.79-.35,1.71-.52,2.78-.52s2.01.18,2.84.54c.83.36,1.48.9,1.96,1.62.47.72.71,1.62.71,2.7v.64h-2.77v-.64c0-.57-.11-1.03-.33-1.37-.22-.35-.54-.6-.95-.77-.41-.16-.9-.25-1.47-.25-.85,0-1.48.16-1.88.48-.41.32-.61.76-.61,1.31,0,.37.1.68.29.94.19.26.48.47.86.64.38.17.87.32,1.47.45l.49.11c1.06.23,1.99.52,2.78.87.79.36,1.4.82,1.84,1.41.44.58.66,1.33.66,2.24s-.23,1.71-.69,2.4-1.11,1.23-1.96,1.62c-.85.39-1.84.59-2.99.59Z"/>
    <path class="cls-1" d="M395.08,290.68c-.75,0-1.43-.13-2.02-.39-.6-.26-1.07-.65-1.42-1.15-.35-.5-.52-1.12-.52-1.84s.17-1.33.52-1.82c.35-.49.83-.86,1.45-1.11.62-.25,1.32-.37,2.12-.37h2.9v-.6c0-.5-.16-.91-.47-1.22-.31-.32-.81-.48-1.49-.48s-1.16.15-1.49.46-.54.7-.64,1.18l-2.47-.83c.17-.54.44-1.03.82-1.48.38-.45.88-.81,1.51-1.09s1.4-.42,2.31-.42c1.39,0,2.49.35,3.3,1.04s1.21,1.7,1.21,3.02v3.94c0,.43.2.64.6.64h.85v2.22h-1.79c-.52,0-.96-.13-1.3-.38-.34-.26-.51-.6-.51-1.02v-.02h-.41c-.06.17-.18.39-.38.67-.2.28-.51.52-.94.73-.43.21-1.01.32-1.75.32ZM395.55,288.51c.75,0,1.37-.21,1.84-.63.47-.42.71-.98.71-1.67v-.21h-2.71c-.5,0-.89.11-1.17.32-.28.21-.43.51-.43.89s.15.7.45.94c.3.24.73.36,1.3.36Z"/>
    <path class="cls-1" d="M404.11,290.39v-10.57h2.64v1.15h.38c.18-.36.49-.66.92-.93s.99-.39,1.68-.39c.75,0,1.36.15,1.81.44.45.29.8.67,1.04,1.14h.38c.24-.45.58-.83,1.02-1.13s1.07-.45,1.88-.45c.65,0,1.25.14,1.78.42.53.28.96.7,1.28,1.26.32.56.48,1.27.48,2.12v6.95h-2.68v-6.75c0-.58-.15-1.02-.45-1.31s-.72-.44-1.26-.44c-.61,0-1.08.2-1.42.59-.33.39-.5.95-.5,1.67v6.24h-2.68v-6.75c0-.58-.15-1.02-.45-1.31s-.72-.44-1.26-.44c-.61,0-1.08.2-1.42.59s-.5.95-.5,1.67v6.24h-2.68Z"/>
    <path class="cls-1" d="M422.3,294.65v-14.83h2.64v1.28h.38c.24-.41.62-.78,1.13-1.1.51-.32,1.24-.48,2.19-.48.85,0,1.64.21,2.36.63s1.31,1.03,1.75,1.84c.44.81.66,1.79.66,2.94v.34c0,1.15-.22,2.13-.66,2.94-.44.81-1.02,1.42-1.75,1.84-.72.42-1.51.63-2.36.63-.64,0-1.17-.07-1.61-.22-.43-.15-.78-.34-1.04-.57s-.47-.47-.63-.71h-.38v5.47h-2.68ZM427.84,288.34c.84,0,1.53-.27,2.08-.8.55-.53.82-1.31.82-2.33v-.21c0-1.02-.28-1.8-.83-2.33-.55-.53-1.24-.8-2.07-.8s-1.51.27-2.07.8c-.55.53-.83,1.31-.83,2.33v.21c0,1.02.28,1.8.83,2.33.55.53,1.24.8,2.07.8Z"/>
    <path class="cls-1" d="M435.89,290.39v-14.91h2.68v14.91h-2.68Z"/>
    <path class="cls-1" d="M446.37,290.68c-1.05,0-1.98-.22-2.78-.67s-1.43-1.08-1.87-1.9c-.45-.82-.67-1.78-.67-2.89v-.26c0-1.11.22-2.07.66-2.89.44-.82,1.06-1.45,1.85-1.9.8-.45,1.72-.67,2.77-.67s1.94.23,2.71.69c.77.46,1.36,1.1,1.79,1.92.43.82.64,1.77.64,2.84v.92h-7.69c.03.72.3,1.31.81,1.77s1.14.68,1.87.68,1.31-.16,1.66-.49c.36-.33.63-.69.81-1.09l2.19,1.15c-.2.37-.49.77-.86,1.2-.38.43-.88.8-1.5,1.11-.63.31-1.42.46-2.39.46ZM443.79,283.89h4.94c-.06-.61-.3-1.1-.73-1.47-.43-.37-1-.55-1.69-.55s-1.3.18-1.72.55c-.43.37-.69.86-.79,1.47Z"/>
    <path class="cls-1" d="M453.85,290.39v-10.57h2.64v1.19h.38c.16-.43.42-.74.78-.94.36-.2.78-.3,1.27-.3h1.28v2.39h-1.32c-.68,0-1.24.18-1.68.54-.44.36-.66.92-.66,1.67v6.01h-2.68Z"/>
  </g>
  <g>
    <path class="cls-1" d="M39.8,264.55v-59.2h25.71c3.72,0,6.96.65,9.73,1.95,2.76,1.3,4.91,3.13,6.43,5.5,1.52,2.37,2.28,5.16,2.28,8.37v1.01c0,3.55-.85,6.43-2.54,8.63-1.69,2.2-3.78,3.81-6.26,4.82v1.52c2.25.11,4,.89,5.24,2.33,1.24,1.44,1.86,3.34,1.86,5.71v19.37h-11.16v-17.76c0-1.35-.35-2.45-1.06-3.3-.71-.85-1.87-1.27-3.51-1.27h-15.56v22.33h-11.16ZM50.97,232.08h13.36c2.65,0,4.72-.72,6.22-2.16,1.49-1.44,2.24-3.34,2.24-5.71v-.85c0-2.37-.73-4.27-2.2-5.71-1.47-1.44-3.55-2.16-6.26-2.16h-13.36v16.58Z"/>
    <path class="cls-1" d="M112.7,265.74c-4.17,0-7.85-.89-11.04-2.66-3.19-1.78-5.67-4.28-7.44-7.53-1.78-3.24-2.66-7.06-2.66-11.46v-1.02c0-4.4.87-8.22,2.62-11.46,1.75-3.24,4.2-5.75,7.36-7.53,3.16-1.78,6.82-2.66,10.99-2.66s7.7.92,10.74,2.75c3.04,1.83,5.41,4.37,7.1,7.61,1.69,3.24,2.54,7.01,2.54,11.29v3.64h-30.53c.11,2.87,1.18,5.21,3.21,7.02,2.03,1.8,4.51,2.71,7.44,2.71s5.19-.65,6.6-1.95c1.41-1.3,2.48-2.73,3.21-4.31l8.71,4.57c-.79,1.47-1.93,3.06-3.43,4.78-1.49,1.72-3.48,3.19-5.96,4.4-2.48,1.21-5.64,1.82-9.47,1.82ZM102.47,238.76h19.62c-.23-2.42-1.2-4.37-2.92-5.84-1.72-1.47-3.96-2.2-6.72-2.2s-5.16.73-6.85,2.2c-1.69,1.47-2.74,3.41-3.13,5.84Z"/>
    <path class="cls-1" d="M269.41,265.74c-4.17,0-7.85-.89-11.04-2.66-3.19-1.78-5.67-4.28-7.44-7.53-1.78-3.24-2.66-7.06-2.66-11.46v-1.02c0-4.4.87-8.22,2.62-11.46,1.75-3.24,4.2-5.75,7.36-7.53,3.16-1.78,6.82-2.66,10.99-2.66s7.7.92,10.74,2.75c3.05,1.83,5.41,4.37,7.1,7.61,1.69,3.24,2.54,7.01,2.54,11.29v3.64h-30.53c.11,2.87,1.18,5.21,3.21,7.02s4.51,2.71,7.44,2.71,5.19-.65,6.6-1.95c1.41-1.3,2.48-2.73,3.21-4.31l8.71,4.57c-.79,1.47-1.93,3.06-3.43,4.78-1.49,1.72-3.48,3.19-5.96,4.4-2.48,1.21-5.64,1.82-9.47,1.82ZM259.18,238.76h19.62c-.23-2.42-1.2-4.37-2.92-5.84-1.72-1.47-3.96-2.2-6.72-2.2s-5.16.73-6.85,2.2c-1.69,1.47-2.74,3.41-3.13,5.84Z"/>
    <path class="cls-1" d="M299.09,264.55v-41.95h10.49v4.57h1.52c.73-1.41,1.94-2.64,3.64-3.68,1.69-1.04,3.92-1.56,6.68-1.56,2.99,0,5.38.58,7.19,1.73,1.8,1.16,3.19,2.66,4.14,4.53h1.52c.96-1.8,2.31-3.3,4.06-4.48,1.75-1.18,4.23-1.78,7.44-1.78,2.59,0,4.95.55,7.06,1.65s3.81,2.76,5.07,4.99c1.27,2.23,1.9,5.03,1.9,8.41v27.57h-10.66v-26.81c0-2.31-.59-4.04-1.78-5.2-1.18-1.16-2.85-1.73-4.99-1.73-2.43,0-4.3.78-5.62,2.32-1.33,1.55-1.99,3.76-1.99,6.64v24.78h-10.66v-26.81c0-2.31-.59-4.04-1.78-5.2-1.18-1.16-2.85-1.73-4.99-1.73-2.42,0-4.3.78-5.62,2.32-1.32,1.55-1.99,3.76-1.99,6.64v24.78h-10.66Z"/>
    <path class="cls-1" d="M391.02,265.74c-4.06,0-7.74-.85-11.04-2.54-3.3-1.69-5.91-4.14-7.82-7.36-1.92-3.21-2.88-7.1-2.88-11.67v-1.18c0-4.57.96-8.46,2.88-11.67,1.91-3.21,4.52-5.67,7.82-7.36,3.3-1.69,6.98-2.54,11.04-2.54s7.44.71,10.32,2.11c2.88,1.41,5.2,3.34,6.98,5.79,1.78,2.45,2.95,5.23,3.51,8.33l-10.32,2.2c-.23-1.69-.73-3.21-1.52-4.57-.79-1.35-1.9-2.42-3.34-3.21-1.44-.79-3.23-1.18-5.37-1.18s-4.07.47-5.79,1.4c-1.72.93-3.07,2.31-4.06,4.14-.99,1.83-1.48,4.07-1.48,6.72v.85c0,2.65.49,4.89,1.48,6.72.99,1.83,2.34,3.21,4.06,4.14,1.72.93,3.65,1.4,5.79,1.4,3.21,0,5.65-.83,7.32-2.5,1.66-1.66,2.72-3.85,3.17-6.55l10.32,2.45c-.73,2.99-1.99,5.71-3.76,8.16-1.78,2.45-4.1,4.38-6.98,5.79-2.88,1.41-6.32,2.11-10.32,2.11Z"/>
    <path class="cls-1" d="M439.99,265.74c-4.17,0-7.85-.89-11.04-2.66-3.19-1.78-5.67-4.28-7.44-7.53-1.78-3.24-2.66-7.06-2.66-11.46v-1.02c0-4.4.87-8.22,2.62-11.46,1.75-3.24,4.2-5.75,7.36-7.53,3.16-1.78,6.82-2.66,10.99-2.66s7.7.92,10.74,2.75c3.05,1.83,5.41,4.37,7.1,7.61,1.69,3.24,2.54,7.01,2.54,11.29v3.64h-30.53c.11,2.87,1.18,5.21,3.21,7.02s4.51,2.71,7.44,2.71,5.19-.65,6.6-1.95c1.41-1.3,2.48-2.73,3.21-4.31l8.71,4.57c-.79,1.47-1.93,3.06-3.43,4.78-1.49,1.72-3.48,3.19-5.96,4.4-2.48,1.21-5.64,1.82-9.47,1.82ZM429.75,238.76h19.62c-.23-2.42-1.2-4.37-2.92-5.84-1.72-1.47-3.96-2.2-6.72-2.2s-5.16.73-6.85,2.2c-1.69,1.47-2.74,3.41-3.13,5.84Z"/>
    <g>
      <path class="cls-1" d="M162.33,252.43c2.28,0,4.17-.74,5.66-2.21,1.49-1.47,2.24-3.59,2.24-6.34v-.59c0-2.75-.74-4.87-2.21-6.34-1.47-1.47-3.37-2.21-5.69-2.21s-4.17.74-5.66,2.21c-1.49,1.47-2.24,3.59-2.24,6.34v.59c0,2.75.75,4.87,2.24,6.34,1.49,1.47,3.38,2.21,5.66,2.21Z"/>
      <path class="cls-1" d="M216.45,252.43c2.28,0,4.17-.74,5.66-2.21,1.49-1.47,2.24-3.59,2.24-6.34v-.59c0-2.75-.74-4.87-2.21-6.34-1.47-1.47-3.37-2.21-5.69-2.21s-4.17.74-5.66,2.21c-1.49,1.47-2.24,3.59-2.24,6.34v.59c0,2.75.75,4.87,2.24,6.34,1.49,1.47,3.38,2.21,5.66,2.21Z"/>
      <path class="cls-1" d="M175.33,264.55h9.17v-5.19c-2.22.65-4.31,1.72-6.13,3.18-.93.75-1.96,1.41-3.05,2.01Z"/>
      <path class="cls-1" d="M173.75,244c0,3.95-1.07,6.98-3.21,9.09-2.14,2.11-4.85,3.17-8.12,3.17s-5.98-1.06-8.12-3.17c-2.14-2.11-3.21-5.14-3.21-9.09v-.85c0-3.95,1.07-6.98,3.21-9.09,2.14-2.11,4.85-3.17,8.12-3.17s6.05,1.06,8.16,3.17c2.11,2.11,3.17,5.15,3.17,9.09v.85ZM227.79,244c0,3.95-1.07,6.98-3.21,9.09-2.14,2.11-4.85,3.17-8.12,3.17s-5.98-1.06-8.12-3.17c-2.14-2.11-3.21-5.14-3.21-9.09v-.85c0-3.95,1.07-6.98,3.21-9.09,2.14-2.11,4.85-3.17,8.12-3.17s6.05,1.06,8.16,3.17c2.11,2.11,3.17,5.15,3.17,9.09v.85ZM227.96,224.65l-.39-.2h0s-.06-.04-.06-.04c-3.27-1.66-6.98-2.5-11.05-2.5-3.05,0-5.91.47-8.5,1.4-.86.31-1.71.67-2.51,1.08-1.22.62-2.35,1.35-3.36,2.16-2.69,2.17-5.9,3.61-9.3,4.18-1.1.19-2.23.28-3.35.28-.46,0-.96-.02-1.53-.06-.09,0-.19-.02-.28-.03h-.12c-.38-.05-.76-.1-1.14-.15h-.07c-.13-.03-.26-.05-.39-.07-.44-.08-.88-.17-1.3-.27l-.07-.02s-.08-.02-.12-.03l-.38-.1h0c-2.65-.74-5.09-1.99-7.24-3.73-.85-.69-1.82-1.32-2.87-1.9l-.32-.16s-.08-.04-.11-.07c-.02-.01-.04-.02-.06-.04-3.24-1.65-6.95-2.48-11.02-2.48s-7.78.83-11.02,2.48c-3.27,1.66-5.78,4.01-7.66,7.17-1.89,3.16-2.81,6.87-2.81,11.33v1.35c0,1.52.12,3,.34,4.4.42,2.6,1.23,4.87,2.46,6.93,1.88,3.16,4.39,5.51,7.66,7.17,3.24,1.65,6.95,2.48,11.02,2.48s7.78-.84,11.02-2.49c.02-.01.04-.02.06-.04.04-.02.07-.04.11-.06l.43-.22c1.01-.56,1.94-1.17,2.76-1.83,2.14-1.72,4.56-2.97,7.2-3.71h0s.38-.1.38-.1c.08-.02.13-.03.17-.04l.08-.02c.42-.1.85-.19,1.28-.27.13-.02.26-.04.39-.06h.06c.38-.07.76-.12,1.14-.15h.12c.09-.02.18-.03.28-.04.57-.04,1.07-.06,1.53-.06,1.12,0,2.24.09,3.35.28,3.4.57,6.61,2.02,9.3,4.18,1,.81,2.14,1.54,3.36,2.16.8.41,1.65.77,2.51,1.08.34.12.71.24,1.17.38l.09.03.06.02c2.23.65,4.65.98,7.19.98,4.07,0,7.78-.84,11.02-2.49l.09-.05.54-.28c2.97-1.64,5.28-3.88,7.04-6.84,1.89-3.17,2.81-6.87,2.81-11.33v-1.35c0-4.46-.92-8.17-2.8-11.33-1.79-3-4.15-5.27-7.19-6.92Z"/>
      <path class="cls-1" d="M178.37,224.62c1.82,1.46,3.91,2.53,6.13,3.18v-22.45h-10.66v16.48c.24.11.49.22.73.34,1.37.7,2.65,1.52,3.8,2.45Z"/>
      <path class="cls-1" d="M229.4,264.55h9.05v-9.96c-.34.78-.72,1.54-1.16,2.27-1.98,3.32-4.57,5.83-7.89,7.68Z"/>
      <path class="cls-1" d="M237.3,230.29c.44.73.81,1.49,1.16,2.27v-27.21h-10.66v16.44c.28.13.55.25.82.39,3.7,1.88,6.54,4.54,8.68,8.12Z"/>
    </g>
    <path class="cls-1" d="M140.43,244.26c0,1.58.12,3.07.35,4.48-.23-1.41-.35-2.89-.35-4.48h0Z"/>
  </g>
</svg>