<?xml version="1.0" encoding="UTF-8"?>
<svg id="Blanco_Simple" data-name="Blanco Simple" xmlns="http://www.w3.org/2000/svg" viewBox="0 0 500 500">
  <defs>
    <style>
      .cls-1 {
        fill: #fff;
      }
    </style>
  </defs>
  <path class="cls-1" d="M39.8,279.01v-59.2h25.71c3.72,0,6.96.65,9.73,1.95,2.76,1.3,4.91,3.13,6.43,5.5,1.52,2.37,2.28,5.16,2.28,8.37v1.01c0,3.55-.85,6.43-2.54,8.63-1.69,2.2-3.78,3.81-6.26,4.82v1.52c2.25.11,4,.89,5.24,2.33,1.24,1.44,1.86,3.34,1.86,5.71v19.37h-11.16v-17.76c0-1.35-.35-2.45-1.06-3.3-.71-.85-1.87-1.27-3.51-1.27h-15.56v22.33h-11.16ZM50.97,246.53h13.36c2.65,0,4.72-.72,6.22-2.16,1.49-1.44,2.24-3.34,2.24-5.71v-.85c0-2.37-.73-4.27-2.2-5.71-1.47-1.44-3.55-2.16-6.26-2.16h-13.36v16.58Z"/>
  <path class="cls-1" d="M112.7,280.19c-4.17,0-7.85-.89-11.04-2.66-3.19-1.78-5.67-4.28-7.44-7.53-1.78-3.24-2.66-7.06-2.66-11.46v-1.02c0-4.4.87-8.22,2.62-11.46,1.75-3.24,4.2-5.75,7.36-7.53,3.16-1.78,6.82-2.66,10.99-2.66s7.7.92,10.74,2.75,5.41,4.37,7.1,7.61c1.69,3.24,2.54,7.01,2.54,11.29v3.64h-30.53c.11,2.87,1.18,5.21,3.21,7.02,2.03,1.8,4.51,2.71,7.44,2.71s5.19-.65,6.6-1.95c1.41-1.3,2.48-2.73,3.21-4.31l8.71,4.57c-.79,1.47-1.93,3.06-3.43,4.78-1.49,1.72-3.48,3.19-5.96,4.4-2.48,1.21-5.64,1.82-9.47,1.82ZM102.47,253.21h19.62c-.23-2.42-1.2-4.37-2.92-5.84-1.72-1.47-3.96-2.2-6.72-2.2s-5.16.73-6.85,2.2c-1.69,1.47-2.74,3.41-3.13,5.84Z"/>
  <path class="cls-1" d="M269.41,280.19c-4.17,0-7.85-.89-11.04-2.66-3.19-1.78-5.67-4.28-7.44-7.53-1.78-3.24-2.66-7.06-2.66-11.46v-1.02c0-4.4.87-8.22,2.62-11.46,1.75-3.24,4.2-5.75,7.36-7.53,3.16-1.78,6.82-2.66,10.99-2.66s7.7.92,10.74,2.75c3.05,1.83,5.41,4.37,7.1,7.61,1.69,3.24,2.54,7.01,2.54,11.29v3.64h-30.53c.11,2.87,1.18,5.21,3.21,7.02s4.51,2.71,7.44,2.71,5.19-.65,6.6-1.95c1.41-1.3,2.48-2.73,3.21-4.31l8.71,4.57c-.79,1.47-1.93,3.06-3.43,4.78-1.49,1.72-3.48,3.19-5.96,4.4-2.48,1.21-5.64,1.82-9.47,1.82ZM259.18,253.21h19.62c-.23-2.42-1.2-4.37-2.92-5.84-1.72-1.47-3.96-2.2-6.72-2.2s-5.16.73-6.85,2.2c-1.69,1.47-2.74,3.41-3.13,5.84Z"/>
  <path class="cls-1" d="M299.09,279.01v-41.95h10.49v4.57h1.52c.73-1.41,1.94-2.64,3.64-3.68,1.69-1.04,3.92-1.56,6.68-1.56,2.99,0,5.38.58,7.19,1.73,1.8,1.16,3.19,2.66,4.14,4.53h1.52c.96-1.8,2.31-3.3,4.06-4.48,1.75-1.18,4.23-1.78,7.44-1.78,2.59,0,4.95.55,7.06,1.65s3.81,2.76,5.07,4.99c1.27,2.23,1.9,5.03,1.9,8.41v27.57h-10.66v-26.81c0-2.31-.59-4.04-1.78-5.2-1.18-1.16-2.85-1.73-4.99-1.73-2.43,0-4.3.78-5.62,2.32-1.33,1.55-1.99,3.76-1.99,6.64v24.78h-10.66v-26.81c0-2.31-.59-4.04-1.78-5.2-1.18-1.16-2.85-1.73-4.99-1.73-2.42,0-4.3.78-5.62,2.32-1.32,1.55-1.99,3.76-1.99,6.64v24.78h-10.66Z"/>
  <path class="cls-1" d="M391.02,280.19c-4.06,0-7.74-.85-11.04-2.54-3.3-1.69-5.91-4.14-7.82-7.36-1.92-3.21-2.88-7.1-2.88-11.67v-1.18c0-4.57.96-8.46,2.88-11.67,1.91-3.21,4.52-5.67,7.82-7.36,3.3-1.69,6.98-2.54,11.04-2.54s7.44.71,10.32,2.11c2.88,1.41,5.2,3.34,6.98,5.79,1.78,2.45,2.95,5.23,3.51,8.33l-10.32,2.2c-.23-1.69-.73-3.21-1.52-4.57-.79-1.35-1.9-2.42-3.34-3.21-1.44-.79-3.23-1.18-5.37-1.18s-4.07.47-5.79,1.4c-1.72.93-3.07,2.31-4.06,4.14-.99,1.83-1.48,4.07-1.48,6.72v.85c0,2.65.49,4.89,1.48,6.72.99,1.83,2.34,3.21,4.06,4.14,1.72.93,3.65,1.4,5.79,1.4,3.21,0,5.65-.83,7.32-2.5,1.66-1.66,2.72-3.85,3.17-6.55l10.32,2.45c-.73,2.99-1.99,5.71-3.76,8.16-1.78,2.45-4.1,4.38-6.98,5.79-2.88,1.41-6.32,2.11-10.32,2.11Z"/>
  <path class="cls-1" d="M439.99,280.19c-4.17,0-7.85-.89-11.04-2.66-3.19-1.78-5.67-4.28-7.44-7.53-1.78-3.24-2.66-7.06-2.66-11.46v-1.02c0-4.4.87-8.22,2.62-11.46,1.75-3.24,4.2-5.75,7.36-7.53,3.16-1.78,6.82-2.66,10.99-2.66s7.7.92,10.74,2.75c3.05,1.83,5.41,4.37,7.1,7.61,1.69,3.24,2.54,7.01,2.54,11.29v3.64h-30.53c.11,2.87,1.18,5.21,3.21,7.02s4.51,2.71,7.44,2.71,5.19-.65,6.6-1.95c1.41-1.3,2.48-2.73,3.21-4.31l8.71,4.57c-.79,1.47-1.93,3.06-3.43,4.78-1.49,1.72-3.48,3.19-5.96,4.4-2.48,1.21-5.64,1.82-9.47,1.82ZM429.75,253.21h19.62c-.23-2.42-1.2-4.37-2.92-5.84-1.72-1.47-3.96-2.2-6.72-2.2s-5.16.73-6.85,2.2c-1.69,1.47-2.74,3.41-3.13,5.84Z"/>
  <g>
    <path class="cls-1" d="M162.33,266.88c2.28,0,4.17-.74,5.66-2.21,1.49-1.47,2.24-3.59,2.24-6.34v-.59c0-2.75-.74-4.87-2.21-6.34-1.47-1.47-3.37-2.21-5.69-2.21s-4.17.74-5.66,2.21c-1.49,1.47-2.24,3.59-2.24,6.34v.59c0,2.75.75,4.87,2.24,6.34,1.49,1.47,3.38,2.21,5.66,2.21Z"/>
    <path class="cls-1" d="M216.45,266.88c2.28,0,4.17-.74,5.66-2.21,1.49-1.47,2.24-3.59,2.24-6.34v-.59c0-2.75-.74-4.87-2.21-6.34-1.47-1.47-3.37-2.21-5.69-2.21s-4.17.74-5.66,2.21c-1.49,1.47-2.24,3.59-2.24,6.34v.59c0,2.75.75,4.87,2.24,6.34,1.49,1.47,3.38,2.21,5.66,2.21Z"/>
    <path class="cls-1" d="M175.33,279.01h9.17v-5.19c-2.22.65-4.31,1.72-6.13,3.18-.93.75-1.96,1.41-3.05,2.01Z"/>
    <path class="cls-1" d="M173.75,258.46c0,3.95-1.07,6.98-3.21,9.09-2.14,2.11-4.85,3.17-8.12,3.17s-5.98-1.06-8.12-3.17c-2.14-2.11-3.21-5.14-3.21-9.09v-.85c0-3.95,1.07-6.98,3.21-9.09,2.14-2.11,4.85-3.17,8.12-3.17s6.05,1.06,8.16,3.17c2.11,2.11,3.17,5.15,3.17,9.09v.85ZM227.79,258.46c0,3.95-1.07,6.98-3.21,9.09-2.14,2.11-4.85,3.17-8.12,3.17s-5.98-1.06-8.12-3.17c-2.14-2.11-3.21-5.14-3.21-9.09v-.85c0-3.95,1.07-6.98,3.21-9.09,2.14-2.11,4.85-3.17,8.12-3.17s6.05,1.06,8.16,3.17c2.11,2.11,3.17,5.15,3.17,9.09v.85ZM227.96,239.11l-.39-.2h0s-.06-.04-.06-.04c-3.27-1.66-6.98-2.5-11.05-2.5-3.05,0-5.91.47-8.5,1.4-.86.31-1.71.67-2.51,1.08-1.22.62-2.35,1.35-3.36,2.16-2.69,2.17-5.9,3.61-9.3,4.18-1.1.19-2.23.28-3.35.28-.46,0-.96-.02-1.53-.06-.09,0-.19-.02-.28-.03h-.12c-.38-.05-.76-.1-1.14-.15h-.07c-.13-.03-.26-.05-.39-.07-.44-.08-.88-.17-1.3-.27l-.07-.02s-.08-.02-.12-.03l-.38-.1h0c-2.65-.74-5.09-1.99-7.24-3.73-.85-.69-1.82-1.32-2.87-1.9l-.32-.16s-.08-.04-.11-.07c-.02-.01-.04-.02-.06-.04-3.24-1.65-6.95-2.48-11.02-2.48s-7.78.83-11.02,2.48c-3.27,1.66-5.78,4.01-7.66,7.17-1.89,3.16-2.81,6.87-2.81,11.33v1.35c0,1.52.12,3,.34,4.4.42,2.6,1.23,4.87,2.46,6.93,1.88,3.16,4.39,5.51,7.66,7.17,3.24,1.65,6.95,2.48,11.02,2.48s7.78-.84,11.02-2.49c.02-.01.04-.02.06-.04.04-.02.07-.04.11-.06l.43-.22c1.01-.56,1.94-1.17,2.76-1.83,2.14-1.72,4.56-2.97,7.2-3.71h0s.38-.1.38-.1c.08-.02.13-.03.17-.04l.08-.02c.42-.1.85-.19,1.28-.27.13-.02.26-.04.39-.06h.06c.38-.07.76-.12,1.14-.15h.12c.09-.02.18-.03.28-.04.57-.04,1.07-.06,1.53-.06,1.12,0,2.24.09,3.35.28,3.4.57,6.61,2.02,9.3,4.18,1,.81,2.14,1.54,3.36,2.16.8.41,1.65.77,2.51,1.08.34.12.71.24,1.17.38l.09.03.06.02c2.23.65,4.65.98,7.19.98,4.07,0,7.78-.84,11.02-2.49l.09-.05.54-.28c2.97-1.64,5.28-3.88,7.04-6.84,1.89-3.17,2.81-6.87,2.81-11.33v-1.35c0-4.46-.92-8.17-2.8-11.33-1.79-3-4.15-5.27-7.19-6.92Z"/>
    <path class="cls-1" d="M178.37,239.07c1.82,1.46,3.91,2.53,6.13,3.18v-22.45h-10.66v16.48c.24.11.49.22.73.34,1.37.7,2.65,1.52,3.8,2.45Z"/>
    <path class="cls-1" d="M229.4,279.01h9.05v-9.96c-.34.78-.72,1.54-1.16,2.27-1.98,3.32-4.57,5.83-7.89,7.68Z"/>
    <path class="cls-1" d="M237.3,244.75c.44.73.81,1.49,1.16,2.27v-27.21h-10.66v16.44c.28.13.55.25.82.39,3.7,1.88,6.54,4.54,8.68,8.12Z"/>
  </g>
  <path class="cls-1" d="M140.43,258.71c0,1.58.12,3.07.35,4.48-.23-1.41-.35-2.89-.35-4.48h0Z"/>
</svg>